<svg width="48" height="48" viewBox="0 0 48 48" fill="none" xmlns="http://www.w3.org/2000/svg">
<path d="M45 17H16C15.447 17 15 17.447 15 18L17 33C17 33.553 17.447 34 18 34H41C41.553 34 42 33.553 42 33L46 18C46 17.447 45.553 17 45 17Z" fill="#F37271"/>
<path d="M17 40C15.344 40 14 41.343 14 43C14 44.657 15.344 46 17 46C18.656 46 20 44.657 20 43C20 41.343 18.656 40 17 40ZM17 44C16.447 44 16 43.553 16 43C16 42.447 16.447 42 17 42C17.553 42 18 42.447 18 43C18 43.553 17.553 44 17 44ZM41.952 31.238L41.971 31.242L45.971 15.242L45.952 15.238C45.972 15.16 46 15.084 46 15C46 14.447 45.553 14 45 14H11.629L9.989 2.854L9.971 2.857C9.899 2.376 9.502 2 9 2H3C2.447 2 2 2.447 2 3C2 3.553 2.447 4 3 4H8.137L13.011 37.146L13.03 37.143C13.101 37.624 13.498 38 14 38H42C42.553 38 43 37.553 43 37C43 36.447 42.553 36 42 36H14.863L14.275 32H41C41.468 32 41.843 31.672 41.952 31.238ZM14 30C13.994 30 13.988 30.004 13.982 30.004L11.922 16H43.719L42.719 20H19C18.447 20 18 20.447 18 21C18 21.553 18.447 22 19 22H42.219L41.719 24H26C25.447 24 25 24.447 25 25C25 25.553 25.447 26 26 26H41.219L40.219 30H14ZM38 40C36.344 40 35 41.343 35 43C35 44.657 36.344 46 38 46C39.656 46 41 44.657 41 43C41 41.343 39.656 40 38 40ZM38 44C37.447 44 37 43.553 37 43C37 42.447 37.447 42 38 42C38.553 42 39 42.447 39 43C39 43.553 38.553 44 38 44Z" fill="#384D68"/>
<path fill-rule="evenodd" clip-rule="evenodd" d="M29.2929 17.2929C28.9024 17.6834 28.9024 18.3166 29.2929 18.7071C29.6834 19.0976 30.3166 19.0976 30.7071 18.7071L35.5 13.9142L40.2929 18.7071C40.6834 19.0976 41.3166 19.0976 41.7071 18.7071C42.0976 18.3166 42.0976 17.6834 41.7071 17.2929L36.9142 12.5L41.7071 7.70711C42.0976 7.31658 42.0976 6.68342 41.7071 6.29289C41.3166 5.90237 40.6834 5.90237 40.2929 6.29289L35.5 11.0858L30.7071 6.29289C30.3166 5.90237 29.6834 5.90237 29.2929 6.29289C28.9024 6.68342 28.9024 7.31658 29.2929 7.70711L34.0858 12.5L29.2929 17.2929Z" fill="#F37271"/>
<path d="M29.2929 18.7071L29.6464 18.3536L29.6464 18.3536L29.2929 18.7071ZM29.2929 17.2929L29.6464 17.6464L29.6464 17.6464L29.2929 17.2929ZM30.7071 18.7071L30.3536 18.3536L30.3536 18.3536L30.7071 18.7071ZM35.5 13.9142L35.8536 13.5607C35.6583 13.3654 35.3417 13.3654 35.1464 13.5607L35.5 13.9142ZM40.2929 18.7071L40.6464 18.3536L40.6464 18.3536L40.2929 18.7071ZM36.9142 12.5L36.5607 12.1464C36.4669 12.2402 36.4142 12.3674 36.4142 12.5C36.4142 12.6326 36.4669 12.7598 36.5607 12.8536L36.9142 12.5ZM41.7071 7.70711L42.0607 8.06066L42.0607 8.06066L41.7071 7.70711ZM41.7071 6.29289L41.3536 6.64645L41.3536 6.64645L41.7071 6.29289ZM40.2929 6.29289L40.6464 6.64645L40.6464 6.64645L40.2929 6.29289ZM35.5 11.0858L35.1464 11.4393C35.3417 11.6346 35.6583 11.6346 35.8536 11.4393L35.5 11.0858ZM30.7071 6.29289L30.3536 6.64645L30.3536 6.64645L30.7071 6.29289ZM29.2929 6.29289L29.6464 6.64645L29.6464 6.64645L29.2929 6.29289ZM29.2929 7.70711L29.6464 7.35355L29.2929 7.70711ZM34.0858 12.5L34.4393 12.8536C34.5331 12.7598 34.5858 12.6326 34.5858 12.5C34.5858 12.3674 34.5331 12.2402 34.4393 12.1464L34.0858 12.5ZM29.6464 18.3536C29.4512 18.1583 29.4512 17.8417 29.6464 17.6464L28.9393 16.9393C28.3536 17.5251 28.3536 18.4749 28.9393 19.0607L29.6464 18.3536ZM30.3536 18.3536C30.1583 18.5488 29.8417 18.5488 29.6464 18.3536L28.9393 19.0607C29.5251 19.6464 30.4749 19.6464 31.0607 19.0607L30.3536 18.3536ZM35.1464 13.5607L30.3536 18.3536L31.0607 19.0607L35.8536 14.2678L35.1464 13.5607ZM40.6464 18.3536L35.8536 13.5607L35.1464 14.2678L39.9393 19.0607L40.6464 18.3536ZM41.3536 18.3536C41.1583 18.5488 40.8417 18.5488 40.6464 18.3536L39.9393 19.0607C40.5251 19.6464 41.4749 19.6464 42.0607 19.0607L41.3536 18.3536ZM41.3536 17.6464C41.5488 17.8417 41.5488 18.1583 41.3536 18.3536L42.0607 19.0607C42.6464 18.4749 42.6464 17.5251 42.0607 16.9393L41.3536 17.6464ZM36.5607 12.8536L41.3536 17.6464L42.0607 16.9393L37.2678 12.1464L36.5607 12.8536ZM41.3536 7.35355L36.5607 12.1464L37.2678 12.8536L42.0607 8.06066L41.3536 7.35355ZM41.3536 6.64645C41.5488 6.84171 41.5488 7.15829 41.3536 7.35355L42.0607 8.06066C42.6464 7.47487 42.6464 6.52513 42.0607 5.93934L41.3536 6.64645ZM40.6464 6.64645C40.8417 6.45118 41.1583 6.45118 41.3536 6.64645L42.0607 5.93934C41.4749 5.35355 40.5251 5.35355 39.9393 5.93934L40.6464 6.64645ZM35.8536 11.4393L40.6464 6.64645L39.9393 5.93934L35.1464 10.7322L35.8536 11.4393ZM30.3536 6.64645L35.1464 11.4393L35.8536 10.7322L31.0607 5.93934L30.3536 6.64645ZM29.6464 6.64645C29.8417 6.45118 30.1583 6.45118 30.3536 6.64645L31.0607 5.93934C30.4749 5.35355 29.5251 5.35355 28.9393 5.93934L29.6464 6.64645ZM29.6464 7.35355C29.4512 7.15829 29.4512 6.84171 29.6464 6.64645L28.9393 5.93934C28.3536 6.52513 28.3536 7.47487 28.9393 8.06066L29.6464 7.35355ZM34.4393 12.1464L29.6464 7.35355L28.9393 8.06066L33.7322 12.8536L34.4393 12.1464ZM29.6464 17.6464L34.4393 12.8536L33.7322 12.1464L28.9393 16.9393L29.6464 17.6464Z" fill="#384D68"/>
</svg>
