<svg width="48" height="48" viewBox="0 0 48 48" fill="none" xmlns="http://www.w3.org/2000/svg">
<path d="M23 8C23.552 8 24 7.553 24 7V3C24 2.447 23.552 2 23 2C22.448 2 22 2.447 22 3V7C22 7.553 22.448 8 23 8ZM28.762 8.692L31.7 5.754C32.106 5.348 32.106 4.691 31.7 4.284C31.294 3.879 30.637 3.879 30.231 4.284L27.293 7.222C26.887 7.628 26.887 8.286 27.293 8.692C27.699 9.098 28.356 9.098 28.762 8.692ZM17.238 8.692C17.644 9.097 18.301 9.097 18.707 8.692C19.113 8.287 19.113 7.629 18.707 7.222L15.769 4.284C15.363 3.879 14.705 3.879 14.299 4.284C13.894 4.69 13.894 5.347 14.299 5.754L17.238 8.692ZM42 22H32.618L28.894 14.553L28.885 14.558C28.721 14.23 28.391 14 28 14H10C9.448 14 9 14.447 9 15C9 15.161 9.047 15.308 9.115 15.442L9.106 15.447L11 19.236V45C11 45.553 11.448 46 12 46H42C42.552 46 43 45.553 43 45V23C43 21.943 42 22 42 22Z" fill="#FFDE99"/>
<path d="M46 11C46 10.447 45.552 10 45 10H35C34.448 10 34 10.447 34 11C34 11.553 34.448 12 35 12H43.382L39.382 20H32.618L27.894 10.553L27.885 10.558C27.721 10.23 27.391 10 27 10H3C2.448 10 2 10.447 2 11C2 11.161 2.047 11.308 2.115 11.442L2.106 11.447L7 21.236V43C7 43.553 7.448 44 8 44H40C40.552 44 41 43.553 41 43V21.236L45.895 11.447L45.886 11.442C45.953 11.308 46 11.161 46 11ZM4.618 12H26.382L30.382 20H8.618L4.618 12ZM31 41C31 41.553 30.552 42 30 42H9V22H30C30.552 22 31 22.447 31 23V41ZM39 42H34C33.448 42 33 41.553 33 41V23C33 22.447 33.448 22 34 22H39V42Z" fill="#384D68"/>
</svg>
