<svg width="48" height="48" viewBox="0 0 48 48" fill="none" xmlns="http://www.w3.org/2000/svg">
<path d="M26.807 37.425C26.807 37.425 24.364 34.732 24.364 31.8C24.364 28.208 26.711 26.324 27.29 25.5C27.836 24.723 30.819 22.792 30.819 19.2C30.819 16.494 29.062 13.857 28.024 12.566C27.791 12.165 27.182 12 27.182 12H6.909C6.407 12 6 12.403 6 12.9V38.1C6 38.597 6.407 39 6.909 39H26.181C26.683 39 27.09 38.597 27.09 38.1C27.091 37.599 26.807 37.425 26.807 37.425ZM45.091 12C45.091 12 31.748 12.016 31.651 12.016C31.187 12.056 30.819 12.43 30.819 12.901C30.819 13.153 30.924 13.379 31.093 13.543C31.093 13.543 32.116 14.649 32.688 15.97C33.337 17.467 33.546 19.201 33.546 19.201C33.546 22.793 30.228 24.772 29.648 25.501C29.041 26.264 27.091 28.209 27.091 31.801C27.091 35.036 29.966 38.608 29.966 38.608C29.966 38.608 30.179 39 30.727 39H45.091C45.593 39 46 38.597 46 38.1V12.9C46 12.403 45.593 12 45.091 12Z" fill="#ABDCA3"/>
<path d="M14 21C14 21.553 14.448 22 15 22C15.552 22 16 21.553 16 21C16 19.064 14.282 17.451 12 17.081V16C12 15.447 11.552 15 11 15C10.448 15 10 15.447 10 16V17.081C7.718 17.451 6 19.064 6 21C6 22.936 7.718 24.549 10 24.919V28.878C8.837 28.602 8 27.869 8 27C8 26.447 7.552 26 7 26C6.448 26 6 26.447 6 27C6 28.936 7.718 30.549 10 30.919V32C10 32.553 10.448 33 11 33C11.552 33 12 32.553 12 32V30.919C14.282 30.549 16 28.936 16 27C16 25.064 14.282 23.451 12 23.081V19.122C13.163 19.397 14 20.131 14 21ZM10 22.878C8.837 22.602 8 21.869 8 21C8 20.131 8.837 19.397 10 19.122V22.878ZM14 27C14 27.869 13.163 28.602 12 28.878V25.122C13.163 25.397 14 26.131 14 27ZM45 9C45 9 27.022 9.017 26.916 9.017C26.405 9.063 26 9.478 26 10C26 10.28 26.116 10.531 26.301 10.713C26.509 10.973 29 14.156 29 17C29 20.991 26.45 23.19 25.812 24C25.145 24.848 23 27.009 23 31C23 34.595 26.162 38.563 26.162 38.563C26.162 38.563 26.396 39 27 39H45C45.552 39 46 38.553 46 38V10C46 9.447 45.552 9 45 9ZM44 37H27.522C26.681 35.806 25 33.976 25 31C25 27.009 27.582 24.915 28.219 24C28.385 23.762 28.674 23.416 29 22.972V23H44V37ZM44 21H30.155C30.628 19.945 31 18.636 31 17H44V21ZM44 15H30.764C30.35 13.235 29.471 11.866 28.808 11H44V15ZM35 33C35.552 33 36 32.553 36 32V30C36 29.447 35.552 29 35 29C34.448 29 34 29.447 34 30V32C34 32.553 34.448 33 35 33ZM39 33C39.552 33 40 32.553 40 32V30C40 29.447 39.552 29 39 29C38.448 29 38 29.447 38 30V32C38 32.553 38.448 33 39 33ZM22.688 37.25C22.688 37.25 20 34.257 20 31C20 27.009 22.582 24.915 23.219 24C23.82 23.136 26 20.991 26 17C26 13.994 24.068 11.063 22.925 9.629C22.67 9.184 22 9 22 9H3C2.448 9 2 9.447 2 10V38C2 38.553 2.448 39 3 39H22C22.552 39 23 38.553 23 38C23 37.443 22.688 37.25 22.688 37.25ZM4 37V11H21.449C22.282 12.208 24 13.994 24 17C24 20.991 21.45 23.19 20.812 24C20.145 24.848 18 27.009 18 31C18 33.744 19.282 35.829 20.178 37H4Z" fill="#384D68"/>
</svg>
