<svg width="48" height="48" viewBox="0 0 48 48" fill="none" xmlns="http://www.w3.org/2000/svg">
<path d="M26 43.004C36.4934 43.004 45 34.4974 45 24.004C45 13.5106 36.4934 5.004 26 5.004C15.5066 5.004 7 13.5106 7 24.004C7 34.4974 15.5066 43.004 26 43.004Z" fill="#FCE883"/>
<path d="M13 7.004C13.553 7.004 14 6.557 14 6.004C14 5.451 13.553 5.004 13 5.004C12.447 5.004 12 5.451 12 6.004C12 6.557 12.447 7.004 13 7.004ZM4 21.004C3.447 21.004 3 21.451 3 22.004C3 22.557 3.447 23.004 4 23.004C4.553 23.004 5 22.557 5 22.004C5 21.451 4.553 21.004 4 21.004ZM23 4.004C23.553 4.004 24 3.557 24 3.004C24 2.451 23.553 2.004 23 2.004C22.447 2.004 22 2.451 22 3.004C22 3.557 22.447 4.004 23 4.004ZM26 24.004H30V27.004C30 27.557 30.447 28.004 31 28.004C31.553 28.004 32 27.557 32 27.004V24.004H33C33.553 24.004 34 23.557 34 23.004C34 22.451 33.553 22.004 33 22.004H32V21.004C32 20.451 31.553 20.004 31 20.004C30.447 20.004 30 20.451 30 21.004V22.004H27.517L29.919 16.398H29.918C29.971 16.276 30 16.144 30 16.004C30 15.451 29.553 15.004 29 15.004C28.588 15.004 28.234 15.254 28.081 15.61L28.079 15.613C28.079 15.614 28.079 15.615 28.078 15.616L25.081 22.61C25.029 22.731 25 22.864 25 23.004C25 23.557 25.447 24.004 26 24.004ZM43 22.004C43 14.953 39.247 8.896 33.733 5.336C33.551 5.135 33.293 5.004 33 5.004C32.447 5.004 32 5.451 32 6.004C32 6.425 32.262 6.782 32.631 6.93C37.587 10.135 41 15.663 41 22.004C41 31.945 32.941 40.004 23 40.004C22.776 40.004 22.557 39.989 22.335 39.979V39.971L24.718 37.612C25.094 37.239 25.094 36.634 24.718 36.261C24.341 35.888 23.73 35.888 23.353 36.261L19.26 40.314C18.883 40.687 18.883 41.292 19.26 41.665L23.353 45.718C23.73 46.091 24.341 46.091 24.718 45.718C25.094 45.345 25.094 44.74 24.718 44.367L22.305 41.978C22.536 41.988 22.766 42.004 23 42.004C34.046 42.004 43 33.05 43 22.004ZM7 31.004C6.447 31.004 6 31.451 6 32.004C6 32.557 6.447 33.004 7 33.004C7.553 33.004 8 32.557 8 32.004C8 31.451 7.553 31.004 7 31.004ZM22 27.004C22 26.451 21.553 26.004 21 26.004H17.135L20.769 21.645C20.769 21.645 22 20.356 22 19.004C22 16.795 20.209 15.004 18 15.004C15.791 15.004 14 16.795 14 19.004H16C16 17.9 16.896 17.004 18 17.004C19.104 17.004 19.948 17.9 20 19.004C20.031 19.676 19.231 20.363 19.231 20.363L14.231 26.363C14.231 26.363 14 26.523 14 27.004C14 27.557 14.447 28.004 15 28.004H21C21.553 28.004 22 27.557 22 27.004ZM13 37.004C12.447 37.004 12 37.451 12 38.004C12 38.557 12.447 39.004 13 39.004C13.553 39.004 14 38.557 14 38.004C14 37.451 13.553 37.004 13 37.004ZM7 11.004C6.447 11.004 6 11.451 6 12.004C6 12.557 6.447 13.004 7 13.004C7.553 13.004 8 12.557 8 12.004C8 11.451 7.553 11.004 7 11.004Z" fill="#384D68"/>
</svg>
