<svg width="48" height="48" viewBox="0 0 48 48" fill="none" xmlns="http://www.w3.org/2000/svg">
<path d="M43.988 12.508H36.988V24.508C36.988 25.061 36.54 25.508 35.988 25.508C35.782 25.508 35.602 25.431 35.444 25.324L33.988 24.508L32.532 25.324C32.373 25.43 32.193 25.508 31.988 25.508C31.436 25.508 30.988 25.061 30.988 24.508V12.508H20.988C20.436 12.508 19.988 12.955 19.988 13.508V36.508C19.988 37.061 20.436 37.508 20.988 37.508H43.988C44.54 37.508 44.988 37.061 44.988 36.508V13.508C44.988 12.955 44.54 12.508 43.988 12.508Z" fill="#F47271"/>
<path d="M4.46501 15.508L8.67801 11.271C9.08201 10.864 9.08201 10.204 8.67801 9.797C8.27401 9.39 7.61801 9.39 7.21401 9.797L2.34401 14.694C2.21601 14.823 2.14301 14.98 2.09601 15.144C1.93501 15.524 2.00501 15.979 2.31301 16.29L7.18301 21.187C7.58701 21.594 8.24301 21.594 8.64701 21.187C9.05201 20.781 9.05201 20.121 8.64701 19.713L4.46501 15.508ZM11.459 16.508H15.988C19.854 16.508 22.988 19.642 22.988 23.508V33.508C22.988 34.061 23.436 34.508 23.988 34.508C24.54 34.508 24.988 34.061 24.988 33.508V23.508C24.988 18.537 20.959 14.508 15.988 14.508H11.459L14.678 11.271C15.082 10.864 15.082 10.204 14.678 9.797C14.274 9.39 13.618 9.39 13.214 9.797L8.34401 14.694C8.21601 14.823 8.14301 14.98 8.09601 15.144C7.93501 15.524 8.00501 15.979 8.31301 16.29L13.183 21.187C13.587 21.594 14.243 21.594 14.647 21.187C15.051 20.781 15.051 20.121 14.647 19.713L11.459 16.508ZM44.988 9.508H33.988C33.436 9.508 32.988 9.955 32.988 10.508V20.64L31.543 19.676L31.533 19.692C31.374 19.586 31.194 19.508 30.989 19.508C30.784 19.508 30.603 19.585 30.445 19.692L30.435 19.676L28.99 20.64V10.508C28.99 9.955 28.542 9.508 27.99 9.508H20.99C20.438 9.508 19.99 9.955 19.99 10.508C19.99 11.061 20.438 11.508 20.99 11.508H26.99V22.508C26.99 23.061 27.438 23.508 27.99 23.508C28.196 23.508 28.376 23.431 28.534 23.324L28.544 23.34L30.989 21.71L33.434 23.34L33.444 23.324C33.603 23.43 33.783 23.508 33.988 23.508C34.54 23.508 34.988 23.061 34.988 22.508V11.508H43.988V36.508H17.988V27.508C17.988 26.955 17.54 26.508 16.988 26.508C16.436 26.508 15.988 26.955 15.988 27.508V37.508C15.988 38.061 16.436 38.508 16.988 38.508H44.988C45.54 38.508 45.988 38.061 45.988 37.508V10.508C45.988 9.955 45.54 9.508 44.988 9.508Z" fill="#384D68"/>
</svg>
