<svg width="48" height="48" viewBox="0 0 48 48" fill="none" xmlns="http://www.w3.org/2000/svg">
<path d="M27 29C32.5228 29 37 24.5228 37 19C37 13.4772 32.5228 9 27 9C21.4772 9 17 13.4772 17 19C17 24.5228 21.4772 29 27 29Z" fill="#8886F9"/>
<path fill-rule="evenodd" clip-rule="evenodd" d="M28.442 13.114L28.447 13.105L24.447 11.105L24.442 11.114C24.308 11.047 24.161 11 24 11C23.839 11 23.692 11.047 23.558 11.114L23.553 11.105L19.553 13.105L19.557 13.114C19.23 13.279 19 13.609 19 14V19C19 19.391 19.23 19.721 19.557 19.886L19.553 19.895L23.553 21.895L23.558 21.886C23.692 21.953 23.839 22 24 22C24.161 22 24.308 21.953 24.442 21.886L24.447 21.895L28.447 19.895L28.442 19.886C28.77 19.721 29 19.391 29 19V14C29 13.609 28.77 13.279 28.442 13.114ZM23 19.382L21 18.382V15.618L23 16.618V19.382ZM24 14.882L22.236 14L24 13.118L25.764 14L24 14.882ZM27 18.382L25 19.382V16.618L27 15.618V18.382ZM24 2C15.716 2 9 8.716 9 17C9 30.891 23.626 46 24 46C24.174 46 39 31.034 39 17C39 8.716 32.284 2 24 2ZM24 43C23.676 43 11 28.95 11 16.954C11 9.8 16.82 4 24 4C31.18 4 37 9.8 37 16.954C37 29.074 24.15 43 24 43ZM24 6C17.925 6 13 10.925 13 17C13 23.075 17.925 28 24 28C30.075 28 35 23.075 35 17C35 10.925 30.075 6 24 6ZM24 26C19.029 26 15 21.971 15 17C15 12.029 19.029 8 24 8C28.971 8 33 12.029 33 17C33 21.971 28.971 26 24 26Z" fill="#384D68"/>
</svg>
