<svg width="256" height="256" viewBox="0 0 256 256" fill="none" xmlns="http://www.w3.org/2000/svg">
<g clip-path="url(#clip0)">
<rect width="256" height="256" rx="16" fill="#8886F9"/>
<path opacity="0.5" d="M14.834 43L11.0547 12.0625H15.2734L17.541 34.1055L20.4238 12.0625H24.2207L27.1211 34.1055L29.125 12.0625H33.3613L29.8105 43H25.1172L22.375 22.4336L19.5273 43H14.834ZM41.1414 39.5547C41.868 39.5547 42.3602 39.2383 42.618 38.6055C42.8875 37.9609 43.0223 37.0059 43.0223 35.7402V23.9453C43.0223 22.6562 42.8875 21.6895 42.618 21.0449C42.3484 20.4004 41.8504 20.0781 41.1238 20.0781C40.3973 20.0781 39.8992 20.4004 39.6297 21.0449C39.3602 21.6777 39.2254 22.6445 39.2254 23.9453V35.7402C39.2254 37.6738 39.5418 38.8574 40.1746 39.291C40.4324 39.4668 40.7547 39.5547 41.1414 39.5547ZM41.1414 43.3164C38.657 43.3164 36.9344 42.5723 35.9734 41.084C35.0125 39.5957 34.532 37.4453 34.532 34.6328V24.7715C34.532 19.1348 36.7293 16.3164 41.1238 16.3164C45.5184 16.3164 47.7156 19.1348 47.7156 24.7715V34.6328C47.7156 39.0273 46.5848 41.7285 44.323 42.7363C43.4559 43.123 42.3953 43.3164 41.1414 43.3164ZM56.3922 39.5547C57.1188 39.5547 57.6109 39.2383 57.8688 38.6055C58.1383 37.9609 58.273 37.0059 58.273 35.7402V23.9453C58.273 22.6562 58.1383 21.6895 57.8688 21.0449C57.5992 20.4004 57.1012 20.0781 56.3746 20.0781C55.648 20.0781 55.15 20.4004 54.8805 21.0449C54.6109 21.6777 54.4762 22.6445 54.4762 23.9453V35.7402C54.4762 37.6738 54.7926 38.8574 55.4254 39.291C55.6832 39.4668 56.0055 39.5547 56.3922 39.5547ZM56.3922 43.3164C53.9078 43.3164 52.1852 42.5723 51.2242 41.084C50.2633 39.5957 49.7828 37.4453 49.7828 34.6328V24.7715C49.7828 19.1348 51.9801 16.3164 56.3746 16.3164C60.7691 16.3164 62.9664 19.1348 62.9664 24.7715V34.6328C62.9664 39.0273 61.8355 41.7285 59.5738 42.7363C58.7066 43.123 57.6461 43.3164 56.3922 43.3164ZM78.4809 34.5625C78.4809 37.5508 77.9477 39.7656 76.8812 41.207C75.8148 42.6367 74.1391 43.3516 71.8539 43.3516C69.5687 43.3516 67.8578 42.5898 66.7211 41.0664C65.5961 39.5312 65.0336 37.3281 65.0336 34.457V20.9746C65.0336 16.3691 66.2406 13.4922 68.6547 12.3438C69.5453 11.9219 70.6234 11.7109 71.8891 11.7109C76.2367 11.7109 78.4105 14.4531 78.4105 19.9375V24.1914H73.8578V20.2363C73.8578 18.6426 73.723 17.5059 73.4535 16.8262C73.184 16.1348 72.6566 15.7891 71.8715 15.7891C71.0863 15.7891 70.5414 16.1523 70.2367 16.8789C69.932 17.6055 69.7797 18.7188 69.7797 20.2188V34.668C69.7797 36.332 69.9262 37.5215 70.2191 38.2363C70.5121 38.9512 71.0453 39.3086 71.8187 39.3086C72.5922 39.3086 73.1254 38.9453 73.4184 38.2188C73.7113 37.4922 73.8578 36.291 73.8578 34.6152V30.1855H78.4809V34.5625ZM86.7531 39.5547C87.4797 39.5547 87.9719 39.2383 88.2297 38.6055C88.4992 37.9609 88.634 37.0059 88.634 35.7402V23.9453C88.634 22.6562 88.4992 21.6895 88.2297 21.0449C87.9602 20.4004 87.4621 20.0781 86.7355 20.0781C86.009 20.0781 85.5109 20.4004 85.2414 21.0449C84.9719 21.6777 84.8371 22.6445 84.8371 23.9453V35.7402C84.8371 37.6738 85.1535 38.8574 85.7863 39.291C86.0441 39.4668 86.3664 39.5547 86.7531 39.5547ZM86.7531 43.3164C84.2688 43.3164 82.5461 42.5723 81.5852 41.084C80.6242 39.5957 80.1438 37.4453 80.1438 34.6328V24.7715C80.1438 19.1348 82.341 16.3164 86.7355 16.3164C91.1301 16.3164 93.3273 19.1348 93.3273 24.7715V34.6328C93.3273 39.0273 92.1965 41.7285 89.9348 42.7363C89.0676 43.123 88.007 43.3164 86.7531 43.3164ZM113.113 43V22.75C113.113 21.0039 112.521 20.1309 111.338 20.1309C110.623 20.1309 110.072 20.377 109.686 20.8691C109.299 21.3613 109.105 22.0703 109.105 22.9961V43H104.447V22.7148C104.447 20.9922 103.873 20.1309 102.725 20.1309C101.963 20.1309 101.389 20.4238 101.002 21.0098C100.627 21.584 100.439 22.3281 100.439 23.2422V43H95.7812V16.6328H100.439V19.498C100.709 18.5137 101.195 17.7402 101.898 17.1777C102.602 16.6035 103.521 16.3164 104.658 16.3164C106.604 16.3164 107.904 17.2012 108.561 18.9707C109.51 17.2012 111.004 16.3164 113.043 16.3164C114.695 16.3164 115.891 16.8672 116.629 17.9688C117.379 19.0703 117.754 20.6816 117.754 22.8027V43H113.113ZM137.786 43V22.75C137.786 21.0039 137.194 20.1309 136.011 20.1309C135.296 20.1309 134.745 20.377 134.358 20.8691C133.971 21.3613 133.778 22.0703 133.778 22.9961V43H129.12V22.7148C129.12 20.9922 128.546 20.1309 127.397 20.1309C126.636 20.1309 126.061 20.4238 125.675 21.0098C125.3 21.584 125.112 22.3281 125.112 23.2422V43H120.454V16.6328H125.112V19.498C125.382 18.5137 125.868 17.7402 126.571 17.1777C127.274 16.6035 128.194 16.3164 129.331 16.3164C131.276 16.3164 132.577 17.2012 133.233 18.9707C134.182 17.2012 135.677 16.3164 137.716 16.3164C139.368 16.3164 140.563 16.8672 141.302 17.9688C142.052 19.0703 142.427 20.6816 142.427 22.8027V43H137.786ZM151.279 43.3164C148.314 43.3164 146.404 42.1855 145.548 39.9238C145.009 38.4824 144.74 36.584 144.74 34.2285V24.4023C144.74 19.0117 146.984 16.3164 151.472 16.3164C153.863 16.3164 155.515 17.0254 156.429 18.4434C157.355 19.8613 157.818 21.877 157.818 24.4902V30.1328H149.433V35.3184C149.433 37.1465 149.591 38.3125 149.908 38.8164C150.224 39.3086 150.699 39.5547 151.332 39.5547C151.964 39.5547 152.375 39.4082 152.562 39.1152C152.879 38.5996 153.06 38.0723 153.107 37.5332C153.154 36.9941 153.177 36.2559 153.177 35.3184V32.998H157.783V34.4043C157.783 36.7949 157.595 38.5117 157.22 39.5547C156.845 40.5977 156.412 41.3535 155.92 41.8223C154.888 42.8184 153.341 43.3164 151.279 43.3164ZM149.416 27.4082H153.177V24.0332C153.177 22.5918 153.06 21.5605 152.826 20.9395C152.603 20.3066 152.14 19.9902 151.437 19.9902C151.425 19.9902 151.42 19.9902 151.42 19.9902C150.201 19.9902 149.545 20.9219 149.451 22.7852C149.427 23.1367 149.416 23.5938 149.416 24.1562V27.4082ZM169.342 16.3164C169.389 16.3164 169.413 17.3008 169.413 19.2695L169.395 20.2539C168.457 20.2539 167.538 20.4121 166.635 20.7285C165.733 21.0449 165.141 21.4961 164.86 22.082V43H160.166V16.6328H164.86V19.5684C165.164 18.5371 165.698 17.7402 166.459 17.1777C167.233 16.6035 168.194 16.3164 169.342 16.3164ZM176.823 43.3164C174.187 43.3164 172.4 42.5371 171.462 40.9785C170.536 39.4199 170.073 37.1641 170.073 34.2109V25.668C170.073 21.8359 170.741 19.252 172.077 17.916C173.144 16.8496 174.755 16.3164 176.911 16.3164C179.068 16.3164 180.626 16.9727 181.587 18.2852C182.548 19.5859 183.029 21.4668 183.029 23.9277V26.8281H178.529V23.7695C178.529 22.1641 178.382 21.1562 178.089 20.7461C177.808 20.3359 177.327 20.1309 176.648 20.1309C175.968 20.1309 175.482 20.4355 175.189 21.0449C174.907 21.6543 174.767 22.5859 174.767 23.8398V35.7227C174.767 37.0234 174.896 37.9785 175.154 38.5879C175.423 39.1973 175.939 39.502 176.7 39.502C177.743 39.4902 178.335 38.7578 178.476 37.3047C178.511 36.9648 178.529 36.5664 178.529 36.1094C178.529 35.9922 178.529 35.8691 178.529 35.7402V32.6113H183.029V35.2832C183.029 37.8613 182.548 39.8477 181.587 41.2422C180.626 42.625 179.038 43.3164 176.823 43.3164ZM191.406 43.3164C188.441 43.3164 186.531 42.1855 185.676 39.9238C185.137 38.4824 184.867 36.584 184.867 34.2285V24.4023C184.867 19.0117 187.111 16.3164 191.6 16.3164C193.99 16.3164 195.643 17.0254 196.557 18.4434C197.482 19.8613 197.945 21.877 197.945 24.4902V30.1328H189.561V35.3184C189.561 37.1465 189.719 38.3125 190.035 38.8164C190.352 39.3086 190.826 39.5547 191.459 39.5547C192.092 39.5547 192.502 39.4082 192.689 39.1152C193.006 38.5996 193.188 38.0723 193.234 37.5332C193.281 36.9941 193.305 36.2559 193.305 35.3184V32.998H197.91V34.4043C197.91 36.7949 197.723 38.5117 197.348 39.5547C196.973 40.5977 196.539 41.3535 196.047 41.8223C195.016 42.8184 193.469 43.3164 191.406 43.3164ZM189.543 27.4082H193.305V24.0332C193.305 22.5918 193.188 21.5605 192.953 20.9395C192.73 20.3066 192.268 19.9902 191.564 19.9902C191.553 19.9902 191.547 19.9902 191.547 19.9902C190.328 19.9902 189.672 20.9219 189.578 22.7852C189.555 23.1367 189.543 23.5938 189.543 24.1562V27.4082ZM15.7832 78L10.9844 47.0625H15.4668L17.4883 61.0371L18.7363 70.8809H18.8594L19.9316 61.0371L21.6191 47.0625H26.0137L21.6016 78H15.7832ZM27.5711 78V51.6328H32.2293V78H27.5711ZM27.5184 49.207V45.1641H32.2117V49.207H27.5184ZM34.2086 57.7852C34.2086 53.4727 36.2828 51.3164 40.4312 51.3164C42.4937 51.3164 43.9996 51.9082 44.9488 53.0918C45.9098 54.2637 46.3902 56.2207 46.3902 58.9629V60.4043H42.2242V58.6641C42.2242 57.4688 42.0895 56.584 41.8199 56.0098C41.5504 55.4238 41.0992 55.1309 40.4664 55.1309C39.8453 55.1309 39.3824 55.3125 39.0777 55.6758C38.7848 56.0391 38.6383 56.6602 38.6383 57.5391C38.6383 58.9336 39.2594 60.2285 40.5016 61.4238L42.9977 63.6914C45.5641 66.082 46.8473 68.7129 46.8473 71.584C46.8473 73.834 46.3375 75.5215 45.318 76.6465C44.2984 77.7715 42.7164 78.334 40.5719 78.334C38.4273 78.334 36.8453 77.7246 35.8258 76.5059C34.8062 75.2754 34.2965 73.3066 34.2965 70.5996V68.8945H38.6734V71.0215C38.6734 73.3652 39.2711 74.5371 40.4664 74.5371C41.0992 74.5371 41.5562 74.332 41.8375 73.9219C42.1187 73.5 42.2594 72.791 42.2594 71.7949C42.2594 70.0371 41.4508 68.4082 39.8336 66.9082C39.7867 66.8613 39.4059 66.5215 38.691 65.8887C37.9879 65.2559 37.5777 64.8809 37.4605 64.7637C35.2926 62.7832 34.2086 60.457 34.2086 57.7852ZM53.0629 78.334C49.934 78.334 48.3695 76.2305 48.3695 72.0234V51.6328H53.0453V71.3027C53.0453 72.3926 53.1801 73.2012 53.4496 73.7285C53.7191 74.2441 54.223 74.502 54.9613 74.502C56.3793 74.502 57.0883 73.4473 57.0883 71.3379L57.1059 51.6328H61.7465V78H57.0883V75.2578C56.35 77.3086 55.0082 78.334 53.0629 78.334ZM72.673 63.6914C71.1965 64.3477 70.2004 64.9688 69.6848 65.5547C69.1691 66.1406 68.9113 67.0488 68.9113 68.2793V71.1094C68.9113 72.3398 69.0402 73.2246 69.298 73.7637C69.5559 74.291 69.9719 74.5547 70.5461 74.5547C71.132 74.5547 71.6066 74.3613 71.9699 73.9746C72.3449 73.5762 72.5793 73.1309 72.673 72.6387V63.6914ZM68.9992 78.2637C67.2766 78.2637 66.0461 77.6484 65.3078 76.418C64.5695 75.1758 64.1887 73.3945 64.1652 71.0742V69.3867C64.1652 67.1367 64.7746 65.4316 65.9934 64.2715C66.7785 63.5098 68.1086 62.7715 69.9836 62.0566C70.3234 61.9277 70.7922 61.752 71.3898 61.5293C71.9992 61.3066 72.427 61.1484 72.673 61.0547V58.752C72.673 57.3223 72.5676 56.3555 72.3566 55.8516C72.1574 55.3359 71.6887 55.0781 70.9504 55.0781C70.2238 55.0781 69.7375 55.3477 69.4914 55.8867C69.2453 56.4258 69.1223 57.334 69.1223 58.6113V59.7891H64.5168V58.998C64.5168 56.502 64.9797 54.5977 65.9055 53.2852C66.843 51.9727 68.4953 51.3164 70.8625 51.3164C73.2414 51.3164 74.9289 51.9727 75.925 53.2852C76.9328 54.5977 77.4367 56.5664 77.4367 59.1914V78H72.7434V75.3809C72.509 76.1895 72.0578 76.875 71.3898 77.4375C70.7336 77.9883 69.9367 78.2637 68.9992 78.2637ZM80.1191 78V46.7988H84.7598V78H80.1191ZM16.6797 104.404C16.6797 106.221 16.8145 107.486 17.084 108.201C17.3652 108.916 17.9336 109.273 18.7891 109.273C19.6445 109.273 20.207 108.91 20.4766 108.184C20.7461 107.445 20.8809 106.186 20.8809 104.404V89.9902C20.8809 88.5254 20.7402 87.459 20.459 86.791C20.1895 86.1113 19.6504 85.7715 18.8418 85.7715C18.0449 85.7715 17.4824 86.1113 17.1543 86.791C16.8379 87.459 16.6797 88.5195 16.6797 89.9727V104.404ZM25.6094 104.352C25.6094 107.375 25.0703 109.631 23.9922 111.119C22.9141 112.607 21.1855 113.352 18.8066 113.352C16.4395 113.352 14.6992 112.607 13.5859 111.119C12.4844 109.619 11.9336 107.363 11.9336 104.352V90.2012C11.9336 84.5293 14.248 81.6934 18.877 81.6934C21.2676 81.6934 22.9844 82.4141 24.0273 83.8555C25.082 85.2969 25.6094 87.4121 25.6094 90.2012V104.352ZM37.2742 86.3164C37.3211 86.3164 37.3445 87.3008 37.3445 89.2695L37.327 90.2539C36.3895 90.2539 35.4695 90.4121 34.5672 90.7285C33.6648 91.0449 33.073 91.4961 32.7918 92.082V113H28.0984V86.6328H32.7918V89.5684C33.0965 88.5371 33.6297 87.7402 34.3914 87.1777C35.1648 86.6035 36.1258 86.3164 37.2742 86.3164ZM42.857 113.264C41.4391 113.264 40.3785 112.865 39.6754 112.068C38.9723 111.271 38.5152 110.264 38.3043 109.045C38.1051 107.814 38.0055 106.326 38.0055 104.58V93.8398C38.0055 91.6367 38.4098 89.832 39.2184 88.4258C40.027 87.0195 41.3629 86.3164 43.2262 86.3164C43.9527 86.3164 44.6148 86.4922 45.2125 86.8438C45.8219 87.1953 46.2965 87.6699 46.6363 88.2676V81.7988H51.2945V113H46.6363V110.557C45.9332 112.361 44.6734 113.264 42.857 113.264ZM42.6988 105.213C42.6988 106.666 42.8336 107.756 43.1031 108.482C43.3844 109.197 43.9 109.555 44.65 109.555C45.4117 109.555 45.9332 109.197 46.2145 108.482C46.5074 107.756 46.6539 106.549 46.6539 104.861V94.3145C46.6539 92.1465 46.3258 90.834 45.6695 90.377C45.3883 90.1895 45.0484 90.0957 44.65 90.0957C43.8648 90.0957 43.3434 90.4531 43.0855 91.168C42.8277 91.8828 42.6988 92.9492 42.6988 94.3672V105.213ZM60.2875 113.316C57.3227 113.316 55.4125 112.186 54.557 109.924C54.018 108.482 53.7484 106.584 53.7484 104.229V94.4023C53.7484 89.0117 55.9926 86.3164 60.4809 86.3164C62.8715 86.3164 64.5238 87.0254 65.4379 88.4434C66.3637 89.8613 66.8266 91.877 66.8266 94.4902V100.133H58.4418V105.318C58.4418 107.146 58.6 108.312 58.9164 108.816C59.2328 109.309 59.7074 109.555 60.3402 109.555C60.973 109.555 61.3832 109.408 61.5707 109.115C61.8871 108.6 62.0687 108.072 62.1156 107.533C62.1625 106.994 62.1859 106.256 62.1859 105.318V102.998H66.7914V104.404C66.7914 106.795 66.6039 108.512 66.2289 109.555C65.8539 110.598 65.4203 111.354 64.9281 111.822C63.8969 112.818 62.35 113.316 60.2875 113.316ZM58.4242 97.4082H62.1859V94.0332C62.1859 92.5918 62.0687 91.5605 61.8344 90.9395C61.6117 90.3066 61.1488 89.9902 60.4457 89.9902C60.434 89.9902 60.4281 89.9902 60.4281 89.9902C59.2094 89.9902 58.5531 90.9219 58.4594 92.7852C58.4359 93.1367 58.4242 93.5938 58.4242 94.1562V97.4082ZM78.3508 86.3164C78.3977 86.3164 78.4211 87.3008 78.4211 89.2695L78.4035 90.2539C77.466 90.2539 76.5461 90.4121 75.6437 90.7285C74.7414 91.0449 74.1496 91.4961 73.8684 92.082V113H69.175V86.6328H73.8684V89.5684C74.173 88.5371 74.7062 87.7402 75.468 87.1777C76.2414 86.6035 77.2023 86.3164 78.3508 86.3164ZM11.7051 139.299V136.539H16.1699V139.65C16.1699 141.373 16.3164 142.586 16.6094 143.289C16.9023 143.98 17.4531 144.326 18.2617 144.326C19.0703 144.326 19.6035 144.039 19.8613 143.465C20.1309 142.891 20.2656 141.953 20.2656 140.652C20.2656 139.352 20.0312 138.221 19.5625 137.26C19.0938 136.287 18.3496 135.273 17.3301 134.219L15.0449 131.863C13.9785 130.75 13.1465 129.596 12.5488 128.4C11.9629 127.205 11.6699 125.822 11.6699 124.252C11.6699 121.697 12.1621 119.799 13.1465 118.557C14.1309 117.314 15.8242 116.693 18.2266 116.693C20.6289 116.693 22.252 117.42 23.0957 118.873C23.9512 120.314 24.3789 122.424 24.3789 125.201V127.117H20.0371V124.902C20.0371 123.402 19.9082 122.33 19.6504 121.686C19.3926 121.029 18.8945 120.701 18.1562 120.701C17.4297 120.701 16.9023 120.947 16.5742 121.439C16.2578 121.932 16.0996 122.67 16.0996 123.654C16.0996 124.639 16.2637 125.424 16.5918 126.01C16.9199 126.596 17.5117 127.346 18.3672 128.26L20.916 131.02C22.1934 132.402 23.1543 133.803 23.7988 135.221C24.4551 136.639 24.7832 138.186 24.7832 139.861C24.7832 142.756 24.2969 144.895 23.3242 146.277C22.3516 147.66 20.6465 148.352 18.209 148.352C15.7832 148.352 14.0898 147.584 13.1289 146.049C12.1797 144.502 11.7051 142.252 11.7051 139.299ZM31.2449 148.176C29.6043 148.176 28.5027 147.865 27.9402 147.244C27.3777 146.611 27.0965 145.521 27.0965 143.975V125.553H24.952V122.178H27.0965V117.045H31.7547V122.178H34.3211V125.553H31.7547V143.166C31.7547 143.787 31.9129 144.186 32.2293 144.361C32.5574 144.537 33.284 144.625 34.409 144.625V148.176H31.2449ZM44.0699 133.691C42.5934 134.348 41.5973 134.969 41.0816 135.555C40.566 136.141 40.3082 137.049 40.3082 138.279V141.109C40.3082 142.34 40.4371 143.225 40.6949 143.764C40.9527 144.291 41.3687 144.555 41.943 144.555C42.5289 144.555 43.0035 144.361 43.3668 143.975C43.7418 143.576 43.9762 143.131 44.0699 142.639V133.691ZM40.3961 148.264C38.6734 148.264 37.443 147.648 36.7047 146.418C35.9664 145.176 35.5855 143.395 35.5621 141.074V139.387C35.5621 137.137 36.1715 135.432 37.3902 134.271C38.1754 133.51 39.5055 132.771 41.3805 132.057C41.7203 131.928 42.1891 131.752 42.7867 131.529C43.3961 131.307 43.8238 131.148 44.0699 131.055V128.752C44.0699 127.322 43.9645 126.355 43.7535 125.852C43.5543 125.336 43.0855 125.078 42.3473 125.078C41.6207 125.078 41.1344 125.348 40.8883 125.887C40.6422 126.426 40.5191 127.334 40.5191 128.611V129.789H35.9137V128.998C35.9137 126.502 36.3766 124.598 37.3023 123.285C38.2398 121.973 39.8922 121.316 42.2594 121.316C44.6383 121.316 46.3258 121.973 47.3219 123.285C48.3297 124.598 48.8336 126.566 48.8336 129.191V148H44.1402V145.381C43.9059 146.189 43.4547 146.875 42.7867 147.438C42.1305 147.988 41.3336 148.264 40.3961 148.264ZM56.2621 148.176C54.6215 148.176 53.5199 147.865 52.9574 147.244C52.3949 146.611 52.1137 145.521 52.1137 143.975V125.553H49.9691V122.178H52.1137V117.045H56.7719V122.178H59.3383V125.553H56.7719V143.166C56.7719 143.787 56.9301 144.186 57.2465 144.361C57.5746 144.537 58.3012 144.625 59.4262 144.625V148.176H56.2621ZM65.5363 148.334C62.4074 148.334 60.843 146.23 60.843 142.023V121.633H65.5187V141.303C65.5187 142.393 65.6535 143.201 65.923 143.729C66.1926 144.244 66.6965 144.502 67.4348 144.502C68.8527 144.502 69.5617 143.447 69.5617 141.338L69.5793 121.633H74.2199V148H69.5617V145.258C68.8234 147.309 67.4816 148.334 65.5363 148.334ZM76.1992 127.785C76.1992 123.473 78.2734 121.316 82.4219 121.316C84.4844 121.316 85.9902 121.908 86.9395 123.092C87.9004 124.264 88.3809 126.221 88.3809 128.963V130.404H84.2148V128.664C84.2148 127.469 84.0801 126.584 83.8105 126.01C83.541 125.424 83.0898 125.131 82.457 125.131C81.8359 125.131 81.373 125.312 81.0684 125.676C80.7754 126.039 80.6289 126.66 80.6289 127.539C80.6289 128.934 81.25 130.229 82.4922 131.424L84.9883 133.691C87.5547 136.082 88.8379 138.713 88.8379 141.584C88.8379 143.834 88.3281 145.521 87.3086 146.646C86.2891 147.771 84.707 148.334 82.5625 148.334C80.418 148.334 78.8359 147.725 77.8164 146.506C76.7969 145.275 76.2871 143.307 76.2871 140.6V138.895H80.6641V141.021C80.6641 143.365 81.2617 144.537 82.457 144.537C83.0898 144.537 83.5469 144.332 83.8281 143.922C84.1094 143.5 84.25 142.791 84.25 141.795C84.25 140.037 83.4414 138.408 81.8242 136.908C81.7773 136.861 81.3965 136.521 80.6816 135.889C79.9785 135.256 79.5684 134.881 79.4512 134.764C77.2832 132.783 76.1992 130.457 76.1992 127.785Z" fill="#4240BF"/>
<line x1="127.988" y1="173" x2="-0.0117184" y2="172" stroke="white" stroke-width="3"/>
<circle cx="128" cy="173" r="6.5" fill="#8886F9" stroke="white" stroke-width="3"/>
<path d="M126.182 75.9091C127.185 75.9091 128 75.0964 128 74.0909V66.8182C128 65.8127 127.185 65 126.182 65C125.178 65 124.364 65.8127 124.364 66.8182V74.0909C124.364 75.0964 125.178 75.9091 126.182 75.9091ZM136.658 77.1673L142 71.8255C142.738 71.0873 142.738 69.8927 142 69.1527C141.262 68.4164 140.067 68.4164 139.329 69.1527L133.987 74.4945C133.249 75.2327 133.249 76.4291 133.987 77.1673C134.725 77.9055 135.92 77.9055 136.658 77.1673ZM115.705 77.1673C116.444 77.9036 117.638 77.9036 118.376 77.1673C119.115 76.4309 119.115 75.2345 118.376 74.4945L113.035 69.1527C112.296 68.4164 111.1 68.4164 110.362 69.1527C109.625 69.8909 109.625 71.0855 110.362 71.8255L115.705 77.1673ZM160.727 101.364H143.669L136.898 87.8236L136.882 87.8327C136.584 87.2364 135.984 86.8182 135.273 86.8182H102.545C101.542 86.8182 100.727 87.6309 100.727 88.6364C100.727 88.9291 100.813 89.1964 100.936 89.44L100.92 89.4491L104.364 96.3382V143.182C104.364 144.187 105.178 145 106.182 145H160.727C161.731 145 162.545 144.187 162.545 143.182V103.182C162.545 101.26 160.727 101.364 160.727 101.364Z" fill="#FFDE99"/>
<path d="M168 81.3637C168 80.3582 167.185 79.5455 166.182 79.5455H148C146.996 79.5455 146.182 80.3582 146.182 81.3637C146.182 82.3691 146.996 83.1818 148 83.1818H163.24L155.967 97.7273H143.669L135.08 80.5509L135.064 80.56C134.765 79.9637 134.165 79.5455 133.455 79.5455H89.8182C88.8145 79.5455 88 80.3582 88 81.3637C88 81.6564 88.0855 81.9237 88.2091 82.1673L88.1927 82.1764L97.0909 99.9746V139.545C97.0909 140.551 97.9055 141.364 98.9091 141.364H157.091C158.095 141.364 158.909 140.551 158.909 139.545V99.9746L167.809 82.1764L167.793 82.1673C167.915 81.9237 168 81.6564 168 81.3637ZM92.76 83.1818H132.331L139.604 97.7273H100.033L92.76 83.1818ZM140.727 135.909C140.727 136.915 139.913 137.727 138.909 137.727H100.727V101.364H138.909C139.913 101.364 140.727 102.176 140.727 103.182V135.909ZM155.273 137.727H146.182C145.178 137.727 144.364 136.915 144.364 135.909V103.182C144.364 102.176 145.178 101.364 146.182 101.364H155.273V137.727Z" fill="#384D68"/>
<path fill-rule="evenodd" clip-rule="evenodd" d="M197.993 238.646L198.255 240.037H200.932L199.041 232.053H196.398L191.317 240.037H194.154L194.951 238.646H197.993ZM196.056 236.707L197.229 234.665L197.617 236.707H196.056Z" fill="#212239"/>
<path fill-rule="evenodd" clip-rule="evenodd" d="M190.542 239.7L192.17 237.142C192.127 236.924 192.043 236.73 191.917 236.558C191.735 236.292 191.473 236.083 191.131 235.931C191.58 235.741 191.929 235.478 192.18 235.144C192.43 234.802 192.555 234.406 192.555 233.957C192.555 233.349 192.312 232.881 191.826 232.554C191.34 232.22 190.63 232.053 189.696 232.053H185.469L183.874 240.037H188.477C189.272 240.037 189.96 239.925 190.542 239.7ZM187.497 235.121L187.736 233.935H189.047C189.274 233.935 189.449 233.977 189.571 234.06C189.692 234.144 189.753 234.265 189.753 234.425C189.753 234.889 189.457 235.121 188.864 235.121H187.497ZM189.286 237.973C189.119 238.094 188.899 238.155 188.625 238.155H186.893L187.144 236.901H188.876C189.066 236.901 189.221 236.946 189.343 237.037C189.472 237.129 189.536 237.258 189.536 237.425C189.536 237.661 189.453 237.844 189.286 237.973Z" fill="#212239"/>
<path d="M170.832 240.22C170.141 240.22 169.491 240.148 168.884 240.003C168.276 239.851 167.775 239.653 167.38 239.41L168.417 237.425C169.275 237.92 170.171 238.167 171.105 238.167C171.447 238.167 171.709 238.125 171.891 238.041C172.074 237.958 172.165 237.844 172.165 237.699C172.165 237.562 172.07 237.452 171.88 237.368C171.698 237.285 171.405 237.193 171.003 237.094C170.471 236.958 170.031 236.821 169.681 236.684C169.332 236.539 169.024 236.323 168.758 236.034C168.5 235.737 168.371 235.349 168.371 234.87C168.371 234.269 168.531 233.745 168.85 233.296C169.176 232.84 169.643 232.49 170.251 232.246C170.858 231.995 171.576 231.87 172.404 231.87C172.996 231.87 173.547 231.931 174.056 232.053C174.572 232.167 175.017 232.334 175.389 232.554L174.42 234.516C174.109 234.319 173.764 234.17 173.384 234.072C173.012 233.973 172.628 233.923 172.233 233.923C171.861 233.923 171.572 233.977 171.367 234.083C171.162 234.189 171.06 234.315 171.06 234.459C171.06 234.604 171.151 234.718 171.333 234.802C171.523 234.885 171.831 234.977 172.256 235.075C172.772 235.197 173.205 235.326 173.555 235.463C173.912 235.6 174.219 235.813 174.477 236.102C174.736 236.391 174.865 236.771 174.865 237.243C174.865 237.836 174.702 238.357 174.375 238.806C174.048 239.254 173.581 239.604 172.974 239.855C172.366 240.098 171.652 240.22 170.832 240.22Z" fill="#212239"/>
<path d="M179.051 240.22C178.337 240.22 177.718 240.102 177.194 239.866C176.678 239.623 176.279 239.281 175.998 238.84C175.725 238.399 175.588 237.882 175.588 237.288C175.588 237.045 175.618 236.764 175.679 236.444L176.556 232.053H179.245L178.379 236.399C178.334 236.612 178.311 236.805 178.311 236.98C178.311 237.338 178.402 237.604 178.584 237.779C178.767 237.954 179.032 238.041 179.382 238.041C179.777 238.041 180.084 237.916 180.304 237.665C180.525 237.414 180.696 236.992 180.817 236.399L181.683 232.053H184.326L183.426 236.558C183.183 237.767 182.697 238.68 181.968 239.296C181.239 239.912 180.267 240.22 179.051 240.22Z" fill="#212239"/>
<path d="M200.996 234.14H203.331L202.158 240.037H204.847L206.02 234.14H208.355L208.777 232.053H201.417L200.996 234.14Z" fill="#212239"/>
<path fill-rule="evenodd" clip-rule="evenodd" d="M212.639 240.22C211.826 240.22 211.112 240.072 210.497 239.775C209.889 239.471 209.419 239.049 209.084 238.509C208.758 237.969 208.595 237.349 208.595 236.65C208.595 235.722 208.807 234.897 209.232 234.174C209.665 233.444 210.262 232.878 211.021 232.475C211.788 232.072 212.654 231.87 213.619 231.87C214.431 231.87 215.141 232.022 215.749 232.326C216.364 232.623 216.835 233.041 217.162 233.581C217.496 234.121 217.663 234.741 217.663 235.44C217.663 236.368 217.446 237.197 217.013 237.927C216.588 238.65 215.992 239.212 215.225 239.615C214.465 240.018 213.603 240.22 212.639 240.22ZM212.867 238.041C213.292 238.041 213.66 237.931 213.972 237.71C214.291 237.49 214.534 237.193 214.701 236.821C214.868 236.448 214.951 236.041 214.951 235.6C214.951 235.129 214.811 234.752 214.53 234.471C214.257 234.189 213.877 234.049 213.391 234.049C212.965 234.049 212.593 234.159 212.274 234.38C211.963 234.6 211.724 234.897 211.557 235.269C211.389 235.642 211.306 236.049 211.306 236.49C211.306 236.961 211.443 237.338 211.716 237.619C211.997 237.901 212.381 238.041 212.867 238.041Z" fill="#212239"/>
<path d="M227.309 240.037L228.881 232.053H226.591L223.253 236.296L221.522 232.053H219.334L217.74 240.037H220.189L220.907 236.444L222.137 239.319H223.322L225.566 236.399L224.86 240.037H227.309Z" fill="#212239"/>
<path d="M230.015 232.048H232.703L231.109 240.033H228.42L230.015 232.048Z" fill="#212239"/>
<path d="M234.851 239.775C235.473 240.072 236.191 240.22 237.004 240.22C237.778 240.22 238.458 240.098 239.043 239.855C239.635 239.612 240.163 239.205 240.626 238.634L239.043 237.117C238.534 237.733 237.942 238.041 237.266 238.041C236.772 238.041 236.373 237.901 236.07 237.619C235.773 237.33 235.625 236.95 235.625 236.478C235.625 236.007 235.716 235.589 235.899 235.224C236.081 234.851 236.335 234.562 236.662 234.357C236.989 234.151 237.361 234.049 237.778 234.049C238.485 234.049 239.016 234.361 239.373 234.984L241.31 233.467C241.021 232.957 240.581 232.566 239.989 232.292C239.396 232.011 238.716 231.87 237.949 231.87C236.977 231.87 236.108 232.075 235.34 232.486C234.581 232.889 233.985 233.452 233.552 234.174C233.126 234.897 232.914 235.722 232.914 236.65C232.914 237.349 233.081 237.969 233.415 238.509C233.757 239.049 234.235 239.471 234.851 239.775Z" fill="#212239"/>
<g clip-path="url(#clip1)">
<path d="M160.747 242H160.746C160.6 242 160.478 241.878 160.478 241.733C160.478 241.594 160.585 241.466 160.744 241.465C161.179 241.458 161.614 241.399 162.025 241.288L162.026 241.288L162.028 241.288C162.174 241.251 162.316 241.343 162.35 241.483C162.387 241.629 162.295 241.771 162.155 241.806C161.698 241.922 161.224 241.992 160.748 242L160.747 242Z" fill="#212239"/>
<path d="M159.272 241.848L159.255 241.844C158.787 241.735 158.343 241.564 157.918 241.355L157.914 241.353L157.91 241.35C157.792 241.283 157.73 241.124 157.807 240.989C157.874 240.872 158.031 240.81 158.165 240.885C158.547 241.082 158.959 241.23 159.38 241.333L159.38 241.333L159.38 241.333C159.52 241.368 159.612 241.51 159.576 241.656L159.573 241.666L159.569 241.676C159.533 241.766 159.435 241.848 159.313 241.848H159.272Z" fill="#212239"/>
<path d="M163.191 241.135L163.19 241.134C163.12 241.012 163.153 240.845 163.296 240.771C163.559 240.621 163.811 240.449 164.048 240.259C164.028 240.197 164.017 240.131 164.017 240.063C164.017 239.706 164.306 239.417 164.663 239.417C165.02 239.417 165.309 239.706 165.309 240.063C165.309 240.419 165.02 240.709 164.663 240.709C164.572 240.709 164.484 240.689 164.406 240.655C164.137 240.874 163.85 241.068 163.551 241.237L163.547 241.239L163.544 241.241L163.542 241.242C163.524 241.251 163.481 241.272 163.422 241.272C163.322 241.272 163.238 241.214 163.192 241.137L163.191 241.135Z" fill="#212239"/>
<path d="M156.675 240.487C156.698 240.51 156.727 240.53 156.761 240.543C156.795 240.556 156.828 240.56 156.856 240.56C156.937 240.56 157.001 240.52 157.04 240.491L157.048 240.484L157.056 240.477C157.175 240.358 157.14 240.191 157.049 240.1L157.043 240.095L157.037 240.09C156.961 240.027 156.89 239.957 156.814 239.88C156.578 239.644 156.364 239.386 156.179 239.12L156.179 239.119L156.178 239.119C156.096 239.004 155.934 238.96 155.804 239.053C155.69 239.134 155.646 239.295 155.737 239.425C155.94 239.72 156.173 240 156.429 240.257C156.507 240.335 156.593 240.413 156.675 240.487Z" fill="#212239"/>
<path d="M155.545 237.896C155.596 238.032 155.531 238.167 155.413 238.226C155.362 238.262 155.311 238.262 155.295 238.262C155.187 238.262 155.082 238.194 155.044 238.084C154.88 237.641 154.772 237.175 154.717 236.702C154.7 236.56 154.802 236.42 154.95 236.402C155.091 236.384 155.232 236.486 155.25 236.634L155.25 236.636L155.251 236.638C155.295 237.07 155.397 237.49 155.545 237.896Z" fill="#212239"/>
<path d="M154.982 235.503L154.972 235.502C154.824 235.483 154.723 235.343 154.74 235.201L154.741 235.199L154.741 235.198C154.811 234.724 154.935 234.265 155.114 233.822C155.163 233.695 155.319 233.603 155.466 233.678C155.614 233.741 155.65 233.904 155.605 234.023L155.605 234.025L155.604 234.027C155.443 234.421 155.333 234.846 155.266 235.272C155.258 235.424 155.124 235.503 155.007 235.503H154.982Z" fill="#212239"/>
<path d="M155.905 232.883L155.903 232.881C155.773 232.789 155.763 232.622 155.844 232.508L155.845 232.507L155.845 232.506C156.017 232.272 156.212 232.046 156.422 231.836C156.547 231.711 156.687 231.587 156.815 231.474L156.817 231.472L156.819 231.471C156.931 231.377 157.103 231.396 157.194 231.506C157.288 231.618 157.269 231.79 157.16 231.881L157.159 231.882L157.159 231.882C157.032 231.986 156.909 232.095 156.802 232.209L156.8 232.211L156.798 232.213C156.607 232.405 156.43 232.611 156.276 232.824L156.275 232.825L156.274 232.826C156.223 232.895 156.147 232.933 156.06 232.933C156.002 232.933 155.95 232.913 155.907 232.884L155.905 232.883Z" fill="#212239"/>
<path d="M163.449 231.417C163.818 231.646 164.156 231.911 164.466 232.221C164.527 232.282 164.604 232.296 164.658 232.296C164.742 232.296 164.802 232.251 164.83 232.23L164.842 232.221L164.85 232.213C164.955 232.107 164.955 231.942 164.85 231.836L164.849 231.836L164.849 231.835C164.507 231.502 164.135 231.206 163.73 230.957L163.728 230.956L163.726 230.955C163.61 230.889 163.435 230.912 163.357 231.05C163.291 231.165 163.314 231.338 163.449 231.417Z" fill="#212239"/>
<path d="M159.438 230.211C158.974 230.311 158.516 230.459 158.087 230.661L158.082 230.664L158.077 230.667C157.976 230.724 157.882 230.876 157.964 231.024C158.012 231.118 158.101 231.174 158.206 231.174C158.235 231.174 158.262 231.168 158.28 231.161C158.289 231.158 158.308 231.152 158.329 231.138C158.715 230.957 159.124 230.826 159.549 230.739L159.552 230.738L159.555 230.737C159.679 230.706 159.798 230.575 159.758 230.414C159.727 230.291 159.597 230.173 159.438 230.211Z" fill="#212239"/>
<path d="M162.185 230.851C161.779 230.73 161.351 230.658 160.93 230.636C160.786 230.633 160.663 230.509 160.675 230.352C160.68 230.208 160.805 230.087 160.962 230.101C161.435 230.125 161.908 230.21 162.356 230.341C162.517 230.384 162.57 230.551 162.54 230.671L162.536 230.687L162.528 230.702C162.491 230.777 162.402 230.871 162.277 230.871L162.277 230.871C162.272 230.871 162.255 230.871 162.237 230.868C162.227 230.866 162.207 230.862 162.185 230.851Z" fill="#212239"/>
<path d="M161.496 236.042C161.496 236.522 161.107 236.911 160.627 236.911C160.147 236.911 159.759 236.522 159.759 236.042C159.759 235.563 160.147 235.174 160.627 235.174C161.107 235.174 161.496 235.563 161.496 236.042Z" fill="#212239"/>
</g>
</g>
<defs>
<clipPath id="clip0">
<rect width="256" height="256" rx="16" fill="white"/>
</clipPath>
<clipPath id="clip1">
<rect width="11.9" height="11.9" fill="white" transform="translate(154.68 230.1)"/>
</clipPath>
</defs>
</svg>
